<?xml version="1.0" encoding="utf-8"?>
<!-- Generator: Adobe Illustrator 16.0.0, SVG Export Plug-In . SVG Version: 6.00 Build 0)  -->
<!DOCTYPE svg PUBLIC "-//W3C//DTD SVG 1.1//EN" "http://www.w3.org/Graphics/SVG/1.1/DTD/svg11.dtd">
<svg version="1.1" id="Layer_1" xmlns="http://www.w3.org/2000/svg" xmlns:xlink="http://www.w3.org/1999/xlink" x="0px" y="0px"
	 width="595.281px" height="841.891px" viewBox="0 0 595.281 841.891" enable-background="new 0 0 595.281 841.891"
	 xml:space="preserve">
<path d="M60.085,375.985c0.183,1.042,0.338,1.771,0.417,2.161c0.106,0.531,0.15,1.072,0.13,1.614c0.015,1.97-0.44,3.916-1.328,5.675
	c-0.753,1.622-2.04,2.936-3.645,3.723c-1.251-1.666-2.773-3.109-4.504-4.27c-1.83-1.214-3.796-2.21-5.857-2.968
	c-2.139-0.765-4.344-1.331-6.586-1.691c-2.195-0.359-4.415-0.542-6.639-0.547c-2.024-0.017-4.045,0.149-6.04,0.494
	c-1.699,0.293-3.365,0.755-4.972,1.38c-1.273,0.478-2.435,1.213-3.41,2.161c-0.795,0.783-1.245,1.852-1.25,2.968
	c0.362,1.625,1.284,3.071,2.604,4.087c1.67,1.536,3.493,2.897,5.441,4.062c2.135,1.327,4.53,2.604,7.133,3.905
	c2.603,1.301,5.207,2.603,7.81,3.696c3.124,1.484,5.832,2.838,8.096,4.113c2.064,1.102,3.958,2.495,5.624,4.14
	c1.456,1.488,2.59,3.261,3.332,5.206c0.679,2.207,0.961,4.516,0.833,6.821c0.022,3.004-0.507,5.986-1.562,8.8
	c-1.003,2.67-2.555,5.1-4.556,7.133c-2.062,2.065-4.525,3.687-7.237,4.764c-3.032,1.161-6.256,1.735-9.502,1.692
	c-3.713-0.058-7.404-0.582-10.986-1.562c-3.884-0.996-7.641-2.438-11.194-4.296c-3.212-1.596-6.14-3.706-8.669-6.248
	c-2.161-1.92-3.448-4.636-3.566-7.523c0.088-1.611,0.449-3.196,1.067-4.687c0.896-2.223,2.193-4.261,3.827-6.014
	c0.398,2.399,1.402,4.657,2.916,6.561c2.208,2.868,4.981,5.252,8.148,7.003c3.257,1.903,6.762,3.349,10.414,4.296
	c3.292,0.846,6.675,1.292,10.075,1.327c2.859,0.094,5.711-0.348,8.409-1.302c1.867-0.687,3.583-1.729,5.051-3.071
	c1.125-1.009,2.015-2.253,2.603-3.645c0.421-0.935,0.702-1.926,0.833-2.942c-0.11-1.355-0.711-2.624-1.692-3.566
	c-1.291-1.297-2.753-2.409-4.348-3.307c-1.796-1.067-3.905-2.16-6.3-3.28c-2.395-1.119-4.894-2.213-7.471-3.306
	c-3.853-1.719-7.211-3.333-9.997-4.843c-2.458-1.283-4.771-2.828-6.899-4.607c-1.659-1.353-3.016-3.037-3.983-4.946
	c-0.852-1.842-1.271-3.854-1.224-5.884c0.019-3.497,1.109-6.904,3.124-9.763c2.262-3.21,5.45-5.653,9.138-7.003
	c2.014-0.88,4.13-1.501,6.3-1.849c2.176-0.366,4.379-0.559,6.586-0.572c4.023,0.004,8.027,0.564,11.897,1.666
	C52.438,372.886,56.317,374.304,60.085,375.985z"/>
<path d="M67.479,402.8c-0.449-0.709-0.733-1.51-0.833-2.343c-0.238-1.017-0.369-2.055-0.391-3.098
	c1.523,0.252,3.064,0.383,4.608,0.391h4.062c0.937-1.823,1.926-3.646,2.994-5.441s2.135-3.437,3.15-4.92
	c0.88-1.307,1.828-2.566,2.838-3.775c0.605-0.754,1.306-1.428,2.083-2.005c0.79,0.021,1.575,0.126,2.343,0.313
	c0.963,0.234,1.926,0.495,2.916,0.833c0.989,0.339,1.875,0.703,2.604,1.067c0.615,0.25,1.173,0.622,1.64,1.094
	c-1.849,2.343-3.411,4.478-4.738,6.456s-2.759,4.27-4.295,6.821h3.749c1.28,0.002,2.559-0.085,3.827-0.261
	c0.319,0.328,0.567,0.718,0.729,1.146c0.185,0.455,0.282,0.94,0.286,1.432c-3.524,1.251-7.248,1.842-10.986,1.744
	c-1.536,2.968-2.89,5.91-4.087,8.826c-1.197,2.915-2.213,5.753-3.046,8.46c-0.789,2.513-1.432,5.068-1.926,7.654
	c-0.44,2.134-0.675,4.305-0.703,6.482c0,2.708,1.015,4.218,3.046,4.53c1.786-0.245,3.534-0.709,5.207-1.38
	c1.596-0.645,3.087-1.521,4.426-2.604c0.305,0.42,0.518,0.898,0.625,1.406c-0.534,0.717-1.165,1.356-1.875,1.9
	c-0.931,0.773-1.904,1.495-2.916,2.16c-0.976,0.664-1.993,1.265-3.046,1.797c-0.693,0.379-1.439,0.651-2.213,0.807
	c-1.58-0.013-3.143-0.322-4.608-0.911c-1.488-0.595-2.896-1.373-4.191-2.317c-1.193-0.85-2.232-1.897-3.072-3.098
	c-0.748-0.963-1.167-2.14-1.197-3.358c0.031-1.871,0.232-3.735,0.599-5.571c0.391-2.265,0.963-4.686,1.692-7.342
	c0.729-2.655,1.614-5.414,2.603-8.305c0.989-2.89,2.057-5.753,3.229-8.591H67.479z"/>
<path d="M126.262,400.874c0.73,0.016,1.456,0.12,2.161,0.312c0.779,0.206,1.538,0.485,2.265,0.833
	c0.602,0.293,1.169,0.65,1.692,1.067c0.469,0.365,0.703,0.703,0.703,1.016c-1.224,2.604-2.369,5.207-3.411,7.811
	c-1.041,2.603-1.926,5.206-2.603,7.523c-0.686,2.206-1.251,4.448-1.692,6.717c-0.363,1.792-0.564,3.613-0.599,5.44
	c-0.038,1.443,0.146,2.883,0.546,4.27c0.278,1.023,0.94,1.9,1.849,2.447c-0.882,0.554-1.85,0.959-2.864,1.198
	c-1.017,0.289-2.067,0.447-3.124,0.468c-3.332,0-4.972-2.265-4.972-6.82c0.334-4.968,1.532-9.84,3.541-14.396
	c-1.202,2.713-2.621,5.325-4.244,7.81c-1.467,2.299-3.093,4.491-4.868,6.561c-1.512,1.836-3.244,3.479-5.155,4.895
	c-1.386,1.036-2.974,1.771-4.66,2.161c-2.263,0.006-4.36-1.182-5.519-3.124c-1.492-2.325-2.237-5.05-2.135-7.811
	c0.055-3.741,0.806-7.44,2.212-10.908c1.447-3.769,3.353-7.345,5.675-10.647c2.115-3.054,4.638-5.804,7.498-8.175
	c2.139-1.977,4.901-3.146,7.81-3.306c0.749,0.261,1.452,0.639,2.083,1.119c0.792,0.576,1.533,1.221,2.213,1.927
	c0.667,0.688,1.269,1.438,1.796,2.238c0.412,0.595,0.696,1.269,0.833,1.979c-2.766,0.438-5.374,1.577-7.576,3.307
	c-2.694,2.101-5.085,4.563-7.107,7.315c-2.104,2.821-3.852,5.89-5.207,9.138c-1.27,2.874-1.96,5.971-2.031,9.112
	c-0.126,0.948,0.411,1.861,1.302,2.212c2.471-0.871,4.621-2.468,6.17-4.581c3.181-3.879,6.02-8.024,8.487-12.393l2.057-3.671
	c0.781-1.354,1.562-2.785,2.369-4.243l2.343-4.478C124.96,403.737,125.585,402.279,126.262,400.874z"/>
<path d="M135.582,436.253c0.287-1.77,0.833-4.113,1.614-7.028c0.781-2.916,1.666-6.04,2.603-9.32
	c0.938-3.28,2.161-6.587,3.307-9.919c1.145-3.332,2.317-6.3,3.41-8.93c0.627-1.531,1.34-3.026,2.135-4.478
	c0.55-0.96,1.234-1.836,2.031-2.604c0.885,0.14,1.756,0.357,2.603,0.651c0.894,0.298,1.765,0.663,2.604,1.093
	c0.794,0.403,1.568,0.847,2.317,1.328c0.578,0.38,1.104,0.835,1.562,1.354c-1.729,2.05-3.199,4.306-4.374,6.717
	c-1.427,3.066-2.627,6.234-3.593,9.476c3.298-2.95,6.231-5.779,8.799-8.486c2.63-2.804,5.016-5.825,7.133-9.034
	c0.58-0.345,1.254-0.5,1.926-0.442c0.886-0.021,1.768,0.121,2.604,0.417c0.673,0.173,1.264,0.578,1.666,1.146
	c-1.086,2.789-1.651,5.754-1.666,8.747c-0.135,2.1,0.278,4.199,1.198,6.092c-0.281,0.775-0.705,1.49-1.25,2.108
	c-0.788,1.049-1.659,2.032-2.603,2.942c-1.696-0.863-3.208-2.049-4.452-3.489c-1.255-1.445-2.227-3.114-2.864-4.92
	c-2.597,1.797-5.059,3.781-7.368,5.936c-2.017,1.909-3.769,4.08-5.207,6.457c-1.534,2.568-2.774,5.302-3.697,8.148
	c-0.989,3.071-1.979,6.742-2.89,10.985c-0.681-0.119-1.345-0.32-1.979-0.599c-0.804-0.355-1.579-0.772-2.317-1.249
	c-0.726-0.466-1.414-0.988-2.057-1.563C136.268,437.376,135.858,436.85,135.582,436.253z"/>
<path d="M180.359,402.8c-0.438-0.714-0.722-1.513-0.833-2.343c-0.218-1.02-0.34-2.057-0.364-3.098
	c1.523,0.252,3.064,0.383,4.608,0.391h4.061c0.911-1.823,1.927-3.646,2.994-5.441s2.108-3.437,3.124-4.92
	c0.888-1.308,1.844-2.567,2.863-3.775c0.599-0.761,1.3-1.435,2.083-2.005c0.79,0.024,1.575,0.129,2.343,0.313
	c0.963,0.234,1.927,0.495,2.916,0.833c0.989,0.339,1.874,0.703,2.603,1.067c0.625,0.245,1.193,0.617,1.667,1.094
	c-1.849,2.343-3.437,4.478-4.738,6.456s-2.76,4.27-4.295,6.821h3.67c1.28,0.004,2.559-0.083,3.827-0.261
	c0.335,0.319,0.594,0.711,0.755,1.146c0.176,0.457,0.265,0.942,0.26,1.432c-3.515,1.253-7.23,1.844-10.96,1.744
	c-1.536,2.968-2.916,5.91-4.113,8.826c-1.198,2.915-2.109,5.753-2.786,8.46c-0.784,2.516-1.436,5.071-1.953,7.654
	c-0.418,2.137-0.645,4.306-0.677,6.482c0,2.708,1.015,4.218,3.046,4.53c1.786-0.243,3.535-0.707,5.207-1.38
	c1.602-0.632,3.095-1.511,4.426-2.604c0.311,0.419,0.532,0.897,0.651,1.406c-0.537,0.723-1.177,1.363-1.9,1.9
	c-0.922,0.773-1.887,1.495-2.89,2.16c-0.976,0.664-1.993,1.265-3.046,1.797c-0.694,0.375-1.44,0.647-2.213,0.807
	c-1.58-0.013-3.143-0.322-4.608-0.911c-1.491-0.589-2.9-1.367-4.191-2.317c-1.193-0.85-2.232-1.897-3.072-3.098
	c-0.756-0.96-1.185-2.137-1.224-3.358c0.045-1.87,0.246-3.733,0.599-5.571c0.417-2.265,0.989-4.686,1.718-7.342
	c0.729-2.655,1.588-5.414,2.604-8.305c1.015-2.89,2.057-5.753,3.228-8.591H180.359z"/>
<path d="M293.163,387.31c0.054,3.645-1.039,7.215-3.124,10.205c-2.242,3.103-5.174,5.643-8.565,7.419
	c2.256,1.52,4.156,3.509,5.571,5.832c1.382,2.303,2.103,4.941,2.083,7.628c-0.061,3.486-1.098,6.887-2.994,9.814
	c-2.11,3.325-4.82,6.229-7.992,8.564c-3.456,2.563-7.272,4.598-11.325,6.04c-4.171,1.521-8.577,2.297-13.017,2.291
	c-4.345,0.124-8.66-0.768-12.6-2.604c-3.498-1.738-6.417-4.45-8.409-7.81c0.59-1.84,1.397-4.131,2.421-6.873
	c1.016-2.604,2.135-5.623,3.384-8.644c1.25-3.02,2.604-6.065,3.723-9.085c1.119-3.021,2.447-5.728,3.541-8.123
	c2.343-5.206,4.425-9.554,6.274-13.017c1.528-2.86,3.268-5.602,5.207-8.2c-3.152,0.96-6.231,2.144-9.216,3.54
	c-2.209,0.967-4.262,2.256-6.092,3.827c-0.646-0.455-1.217-1.009-1.692-1.64c-0.612-0.776-1.168-1.594-1.667-2.447
	c-0.517-0.869-0.953-1.784-1.302-2.733c-0.301-0.797-0.502-1.628-0.599-2.474c1.949-1.288,4.036-2.354,6.222-3.176
	c2.721-1.064,5.513-1.935,8.356-2.604c3.047-0.755,6.132-1.346,9.242-1.771c3.012-0.405,6.047-0.614,9.085-0.625
	c6.098-0.351,12.155,1.195,17.338,4.426C291.033,377.826,293.353,382.447,293.163,387.31z M258.069,409.386
	c-1.24-0.643-2.337-1.528-3.228-2.604c-1.432,3.124-2.76,6.196-4.009,9.216s-2.395,5.806-3.384,8.383s-1.771,4.843-2.395,6.743
	c-0.478,1.395-0.818,2.834-1.016,4.295c0.966,0.531,2.013,0.901,3.098,1.094c1.475,0.286,2.976,0.417,4.478,0.391
	c4.058,0.013,8.095-0.584,11.975-1.771c3.589-1.099,6.98-2.759,10.049-4.92c2.714-1.834,5.056-4.166,6.899-6.873
	c1.664-2.375,2.571-5.197,2.604-8.097c0.21-3.711-1.848-7.181-5.207-8.773c-5.158,2.047-10.67,3.056-16.219,2.968h-1.979
	C259.18,409.468,258.622,409.451,258.069,409.386z M275.954,377.365c-1.365,0.005-2.73,0.083-4.087,0.234
	c-1.458,0.156-2.968,0.391-4.556,0.703c0.236,0.23,0.438,0.493,0.599,0.781c0,0.26,0.286,0.546,0.417,0.858
	c-0.75,1.029-1.428,2.107-2.031,3.229c-0.807,1.432-1.692,3.072-2.604,4.946s-2.004,3.931-3.098,6.222
	c-1.094,2.291-2.161,4.608-3.254,7.003c1.261-0.286,2.539-0.486,3.827-0.599c1.479-0.155,2.964-0.233,4.452-0.234
	c0.807,0,1.588,0,2.369,0c0.781,0,1.51,0.156,2.239,0.287c2.733-0.437,5.412-1.161,7.992-2.161c2.169-0.854,4.224-1.974,6.118-3.332
	c1.548-1.109,2.858-2.517,3.853-4.14c0.909-1.461,1.387-3.148,1.38-4.868c0.131-2.696-1.202-5.255-3.489-6.69
	C282.982,377.923,279.473,377.147,275.954,377.365z"/>
<path d="M305.97,441.33c-3.32-0.276-6.369-1.952-8.382-4.608c-2.193-3.016-3.294-6.688-3.124-10.413
	c0.017-2.589,0.385-5.164,1.094-7.654c0.755-2.713,1.812-5.332,3.149-7.81c1.357-2.506,2.963-4.87,4.791-7.056
	c1.758-2.135,3.77-4.05,5.988-5.701c2.676-2.253,6.01-3.577,9.502-3.774c2.482,1.622,4.486,3.878,5.805,6.534h0.834h0.807
	c3.279,0,4.895,2.89,4.895,8.669c0.025,3.755-0.617,7.483-1.9,11.012c-1.203,3.416-2.963,6.609-5.207,9.451
	c-2.242,2.828-4.955,5.25-8.018,7.159C313.056,439.111,309.595,440.529,305.97,441.33z M310.683,412.302
	c-1.086,1.468-2.068,3.007-2.941,4.608c-0.91,1.62-1.709,3.299-2.396,5.024c-0.643,1.581-1.164,3.209-1.561,4.868
	c-0.361,1.378-0.553,2.794-0.574,4.218c0,1.439,0.256,2.867,0.756,4.218c0.469,1.354,1.041,2.135,1.641,2.316
	c2.748-0.605,5.34-1.786,7.602-3.462c2.354-1.736,4.389-3.868,6.014-6.301c1.73-2.655,3.064-5.55,3.957-8.591
	c0.967-3.324,1.449-6.77,1.432-10.231c0.021-1.265-0.074-2.528-0.287-3.774c-0.16-0.846-0.467-1.657-0.91-2.396
	c-2.662,0.812-5.127,2.168-7.238,3.983C314.15,408.419,312.308,410.269,310.683,412.302z"/>
<path d="M346.634,441.33c-3.324-0.264-6.377-1.941-8.383-4.608c-2.213-3.007-3.326-6.684-3.148-10.413
	c0.012-2.591,0.389-5.168,1.119-7.654c0.734-2.716,1.783-5.337,3.123-7.81c1.357-2.506,2.963-4.87,4.791-7.056
	c1.764-2.129,3.773-4.043,5.986-5.701c2.678-2.25,6.012-3.574,9.504-3.774c2.486,1.615,4.492,3.873,5.805,6.534h0.834h0.832
	c3.254,0,4.869,2.89,4.869,8.669c0.021,3.752-0.613,7.479-1.875,11.012c-1.213,3.411-2.973,6.603-5.207,9.451
	c-2.242,2.828-4.955,5.25-8.018,7.159C353.722,439.114,350.261,440.532,346.634,441.33z M351.451,412.302
	c-1.084,1.468-2.066,3.007-2.941,4.608c-0.898,1.625-1.697,3.304-2.395,5.024c-0.643,1.581-1.166,3.209-1.563,4.868
	c-0.348,1.381-0.539,2.795-0.572,4.218c-0.002,1.439,0.254,2.867,0.754,4.218c0.496,1.354,1.041,2.135,1.666,2.316
	c2.746-0.616,5.336-1.795,7.604-3.462c2.34-1.744,4.363-3.875,5.986-6.301c1.742-2.649,3.076-5.545,3.957-8.591
	c0.98-3.321,1.463-6.769,1.432-10.231c0.021-1.265-0.074-2.528-0.285-3.774c-0.16-0.846-0.469-1.657-0.912-2.396
	c-2.709,0.795-5.219,2.152-7.367,3.983C354.841,408.432,353.042,410.282,351.451,412.302z"/>
<path d="M380.921,402.8c-0.449-0.709-0.734-1.51-0.834-2.343c-0.23-1.017-0.352-2.056-0.363-3.098
	c1.521,0.255,3.063,0.385,4.607,0.391h4.035c0.938-1.823,1.926-3.646,2.994-5.441c1.066-1.796,2.135-3.437,3.15-4.92
	c0.879-1.313,1.836-2.574,2.863-3.775c0.592-0.759,1.283-1.433,2.057-2.005c0.799,0.022,1.592,0.128,2.369,0.313
	c0.938,0.234,1.9,0.495,2.889,0.833c0.99,0.339,1.875,0.703,2.604,1.067c0.619,0.244,1.178,0.616,1.641,1.094
	c-1.822,2.343-3.41,4.478-4.738,6.456s-2.76,4.27-4.27,6.821h3.723c1.281,0.002,2.559-0.085,3.828-0.261
	c0.326,0.321,0.576,0.713,0.729,1.146c0.184,0.455,0.281,0.94,0.285,1.432c-3.523,1.253-7.248,1.844-10.986,1.744
	c-1.535,2.968-2.889,5.91-4.086,8.826c-1.197,2.915-2.213,5.753-3.047,8.46c-0.787,2.513-1.432,5.068-1.926,7.654
	c-0.439,2.134-0.676,4.305-0.703,6.482c0,2.708,1.016,4.218,3.047,4.53c1.785-0.245,3.533-0.709,5.205-1.38
	c1.6-0.639,3.092-1.516,4.426-2.604c0.301,0.426,0.521,0.901,0.652,1.406c-0.553,0.71-1.191,1.349-1.9,1.9
	c-0.928,0.779-1.9,1.501-2.916,2.16c-0.971,0.658-1.979,1.258-3.021,1.797c-0.693,0.375-1.439,0.647-2.211,0.807
	c-1.58-0.013-3.143-0.322-4.609-0.911c-1.49-0.589-2.898-1.368-4.191-2.317c-1.199-0.85-2.248-1.897-3.098-3.098
	c-0.748-0.963-1.168-2.14-1.197-3.358c0.045-1.87,0.246-3.733,0.6-5.571c0.389-2.265,0.963-4.686,1.691-7.342
	c0.729-2.655,1.613-5.414,2.604-8.305c0.988-2.89,2.057-5.753,3.201-8.591H380.921z"/>
<path d="M439.705,401.29c-0.068,1.233-0.27,2.455-0.6,3.645c-0.311,1.169-0.721,2.31-1.223,3.41
	c-0.418,0.932-0.951,1.807-1.588,2.604c-0.344,0.555-0.916,0.927-1.563,1.016c-0.676,0-1.066-0.521-1.197-1.38
	c0.031-0.306,0.111-0.604,0.234-0.885c0.156-0.391,0.313-0.833,0.494-1.328c0.182-0.494,0.365-0.989,0.521-1.483
	c0.143-0.411,0.221-0.842,0.234-1.276c0.02-0.771-0.189-1.532-0.6-2.187c-0.355-0.543-0.965-0.867-1.613-0.859
	c-2.475,0-4.348,1.536-5.623,4.582c-1.496,4.332-2.15,8.908-1.928,13.485c-0.049,0.363-0.049,0.73,0,1.094h6.457
	c0.041,0.241,0.041,0.487,0,0.729c0.055,0.434-0.078,0.868-0.365,1.198l-3.357,0.78c-0.646,0.154-1.283,0.354-1.9,0.6
	c-0.318,0.108-0.594,0.318-0.781,0.599c-0.092,0.276-0.135,0.567-0.131,0.858c0,0.495,0,0.989,0,1.484c0,0.494,0,1.094,0,1.822
	c0.215,4.512-1.281,8.938-4.191,12.392c-3.037,3.254-7.217,5.204-11.662,5.441c-0.904-0.087-1.785-0.333-2.604-0.729
	c-0.93-0.453-1.803-1.013-2.604-1.666c-0.818-0.655-1.545-1.417-2.16-2.265c-0.588-0.781-1.029-1.664-1.303-2.604
	c-0.004-2.329,0.502-4.631,1.484-6.742c0.975-2.116,2.334-4.031,4.01-5.649c1.742-1.68,3.77-3.037,5.986-4.009
	c2.373-1.032,4.938-1.556,7.525-1.536c0-1.522-0.156-3.041-0.469-4.53c-0.313-1.484-0.625-2.916-0.965-4.296
	c-0.338-1.38-0.676-2.759-0.963-4.087c-0.307-1.288-0.465-2.606-0.469-3.931c0.008-1.7,0.354-3.382,1.016-4.946
	c0.646-1.628,1.523-3.153,2.604-4.53c1.088-1.385,2.389-2.588,3.854-3.566c1.398-0.952,2.961-1.641,4.607-2.03
	c0.959,0.374,1.842,0.921,2.604,1.613c1.176,0.932,2.299,1.932,3.357,2.994c1.059,1.049,2.043,2.171,2.943,3.358
	C438.605,399.274,439.261,400.231,439.705,401.29z M409.298,443.23c1.529-0.633,2.945-1.513,4.191-2.604
	c2.639-2.351,4.637-5.334,5.805-8.669c0.576-1.568,0.875-3.225,0.885-4.895c-1.461,0.276-2.846,0.862-4.061,1.718
	c-2.975,1.95-5.496,4.516-7.395,7.524c-0.756,1.094-1.205,2.37-1.301,3.696C407.46,441.326,408.166,442.542,409.298,443.23z"/>
<path d="M445.171,402.8c-0.449-0.709-0.734-1.51-0.832-2.343c-0.232-1.017-0.354-2.056-0.365-3.098
	c1.523,0.255,3.064,0.385,4.607,0.391h4.063c0.91-1.823,1.9-3.646,2.992-5.441c1.094-1.796,2.109-3.437,3.125-4.92
	c0.879-1.313,1.836-2.574,2.863-3.775c0.592-0.759,1.283-1.433,2.057-2.005c0.799,0.022,1.592,0.128,2.369,0.313
	c0.938,0.234,1.9,0.495,2.891,0.833c0.988,0.339,1.873,0.703,2.602,1.067c0.619,0.244,1.178,0.616,1.641,1.094
	c-1.822,2.343-3.41,4.478-4.738,6.456s-2.732,4.27-4.27,6.821h3.723c1.281,0.002,2.561-0.085,3.828-0.261
	c0.326,0.321,0.576,0.713,0.729,1.146c0.186,0.455,0.281,0.94,0.287,1.432c-3.516,1.25-7.23,1.842-10.961,1.744
	c-1.563,2.968-2.916,5.91-4.113,8.826c-1.197,2.915-2.213,5.753-3.045,8.46c-0.789,2.513-1.434,5.068-1.928,7.654
	c-0.439,2.134-0.674,4.305-0.703,6.482c0,2.708,1.016,4.218,3.047,4.53c1.785-0.245,3.533-0.709,5.207-1.38
	c1.598-0.639,3.09-1.516,4.426-2.604c0.299,0.426,0.52,0.901,0.65,1.406c-0.553,0.71-1.191,1.349-1.9,1.9
	c-0.926,0.779-1.9,1.501-2.916,2.16c-0.971,0.658-1.979,1.258-3.02,1.797c-0.695,0.375-1.439,0.647-2.213,0.807
	c-1.58-0.013-3.143-0.322-4.609-0.911c-1.49-0.589-2.898-1.368-4.191-2.317c-1.199-0.85-2.246-1.897-3.098-3.098
	c-0.748-0.963-1.168-2.14-1.197-3.358c0.045-1.87,0.246-3.733,0.6-5.571c0.391-2.265,0.963-4.686,1.691-7.342
	c0.729-2.655,1.615-5.414,2.604-8.305c0.99-2.89,2.057-5.753,3.201-8.591H445.171z"/>
<path d="M470.033,436.253c0.313-1.77,0.834-4.113,1.615-7.028c0.781-2.916,1.666-6.04,2.604-9.32s2.16-6.587,3.332-9.919
	s2.291-6.3,3.41-8.93c0.619-1.53,1.324-3.024,2.109-4.478c0.566-0.948,1.248-1.823,2.029-2.604c0.885,0.144,1.756,0.361,2.604,0.651
	c0.893,0.301,1.764,0.666,2.604,1.093c0.797,0.397,1.57,0.841,2.316,1.328c0.578,0.38,1.104,0.835,1.563,1.354
	c-1.729,2.05-3.199,4.306-4.373,6.717c-1.406,3.076-2.605,6.241-3.594,9.476c3.334-2.941,6.248-5.779,8.801-8.486
	c2.637-2.803,5.033-5.825,7.158-9.034c0.578-0.349,1.254-0.503,1.928-0.442c0.842-0.008,1.68,0.134,2.473,0.417
	c0.674,0.173,1.264,0.578,1.666,1.146c-1.074,2.792-1.639,5.755-1.666,8.747c-0.129,2.103,0.293,4.202,1.223,6.092
	c-0.303,0.765-0.725,1.476-1.25,2.108c-0.787,1.048-1.658,2.031-2.602,2.942c-3.4-1.808-5.992-4.828-7.264-8.461
	c-2.572,1.835-5.01,3.853-7.289,6.039c-2.004,1.923-3.752,4.093-5.207,6.457c-1.539,2.551-2.789,5.267-3.723,8.097
	c-1.016,3.071-1.979,6.742-2.916,10.985c-0.68-0.123-1.344-0.324-1.979-0.599c-1.592-0.705-3.072-1.634-4.4-2.76
	C470.697,437.41,470.296,436.866,470.033,436.253z"/>
<path d="M541.183,400.874c0.73,0.016,1.455,0.12,2.16,0.312c0.779,0.206,1.539,0.485,2.266,0.833
	c0.602,0.293,1.168,0.65,1.691,1.067c0.469,0.365,0.703,0.703,0.703,1.016c-1.223,2.604-2.369,5.207-3.41,7.811
	c-1.041,2.603-1.926,5.206-2.604,7.523c-0.686,2.206-1.25,4.448-1.691,6.717c-0.377,1.79-0.578,3.612-0.6,5.44
	c-0.037,1.443,0.146,2.883,0.547,4.27c0.277,1.023,0.939,1.9,1.848,2.447c-0.881,0.554-1.85,0.959-2.863,1.198
	c-1.016,0.289-2.066,0.447-3.123,0.468c-3.332,0-4.973-2.265-4.973-6.82c0.334-4.954,1.514-9.814,3.488-14.371
	c-1.201,2.714-2.621,5.326-4.244,7.811c-1.467,2.299-3.094,4.491-4.867,6.561c-1.498,1.823-3.211,3.458-5.104,4.868
	c-1.387,1.036-2.973,1.771-4.66,2.161c-2.262,0.006-4.359-1.182-5.518-3.124c-1.492-2.325-2.238-5.05-2.135-7.811
	c0.055-3.741,0.805-7.44,2.213-10.908c1.445-3.769,3.352-7.345,5.674-10.647c2.107-3.06,4.631-5.811,7.498-8.175
	c2.141-1.977,4.902-3.146,7.811-3.306c0.748,0.261,1.451,0.639,2.082,1.119c0.793,0.576,1.533,1.221,2.213,1.927
	c0.668,0.688,1.27,1.438,1.797,2.238c0.412,0.595,0.695,1.269,0.832,1.979c-2.766,0.438-5.373,1.577-7.574,3.307
	c-2.693,2.101-5.086,4.563-7.107,7.315c-2.104,2.821-3.854,5.89-5.207,9.138c-1.27,2.874-1.961,5.971-2.031,9.112
	c-0.125,0.948,0.412,1.861,1.303,2.212c2.471-0.871,4.621-2.468,6.17-4.581c3.18-3.879,6.02-8.024,8.486-12.393l2.057-3.671
	c0.781-1.354,1.563-2.785,2.369-4.243l2.344-4.478C539.777,403.737,540.505,402.279,541.183,400.874z"/>
<path d="M545.972,468.612c-0.857-0.233-1.354-1.171-1.482-2.759c-0.256-0.938-0.42-1.896-0.496-2.864
	c0-1.093-0.129-2.369-0.129-3.774c0.059-1.75,0.268-3.492,0.625-5.207c0.441-2.238,1.041-4.764,1.822-7.602s1.691-5.884,2.811-9.164
	s2.318-6.612,3.672-9.996c1.666-4.244,3.098-7.811,4.348-11.013c1.248-3.202,2.238-5.806,3.07-8.07
	c0.834-2.265,1.512-4.14,2.031-5.623c0.521-1.484,0.938-2.604,1.25-3.775c0.309-0.89,0.674-1.759,1.094-2.604
	c0.518-1.087,1.09-2.147,1.717-3.176c0.625-1.067,1.303-2.083,1.979-3.046c0.535-0.786,1.154-1.512,1.85-2.161
	c2.084,0.294,4.123,0.854,6.064,1.667c1.359,0.429,2.574,1.221,3.516,2.29c-1.123,1.132-2.109,2.391-2.941,3.749
	c-1.174,1.782-2.25,3.624-3.229,5.52c-1.061,1.997-2.016,4.048-2.863,6.144c-0.764,1.796-1.406,3.64-1.928,5.52
	c0.709-1.197,1.51-2.338,2.396-3.411c0.963-1.223,2.604-2.915,4.504-5.076c1.924-2.032,4.072-3.841,6.404-5.389
	c1.533-1.083,3.332-1.73,5.205-1.875c2.092-0.096,4.143,0.591,5.754,1.927c1.48,1.22,2.316,3.055,2.266,4.973
	c-0.006,4.475-0.752,8.917-2.213,13.146c-1.428,4.25-3.576,8.222-6.354,11.741c-1.068,1.343-2.262,2.581-3.566,3.697
	c-1.381,1.207-2.861,2.295-4.426,3.254c-1.418,0.909-2.928,1.668-4.502,2.265c-1.262,0.505-2.602,0.787-3.959,0.833
	c-1.016,0.024-2.021-0.218-2.914-0.702c-0.744-0.351-1.342-0.949-1.693-1.692c2.619-1.605,4.98-3.598,7.004-5.91
	c2.391-2.675,4.502-5.589,6.299-8.695c1.992-3.398,3.691-6.96,5.078-10.647c1.422-3.77,2.518-7.654,3.279-11.61
	c-2.225,1.144-4.342,2.485-6.326,4.009c-2.113,1.648-4.01,3.555-5.648,5.675c-2.213,2.604-3.957,4.869-5.207,6.535
	s-2.344,3.071-3.176,4.243c-0.754,1.035-1.434,2.123-2.031,3.255c-0.521,1.015-1.094,2.265-1.691,3.748
	c-0.859,1.953-1.875,4.557-2.994,7.811s-2.318,6.82-3.516,10.83c-1.197,4.009-2.395,8.252-3.592,12.756s-2.344,9.034-3.463,13.512
	c-0.779-0.199-1.424-0.747-1.744-1.484c-0.494-0.547-0.859-0.937-1.066-1.197C546.617,468.923,546.312,468.725,545.972,468.612z"/>
</svg>
